<?xml version="1.0" encoding="utf-8"?>
<!-- Generator: Adobe Illustrator 12.0.0, SVG Export Plug-In . SVG Version: 6.00 Build 51448)  -->
<!DOCTYPE svg PUBLIC "-//W3C//DTD SVG 1.1//EN" "http://www.w3.org/Graphics/SVG/1.1/DTD/svg11.dtd" [
	<!ENTITY ns_svg "http://www.w3.org/2000/svg">
	<!ENTITY ns_xlink "http://www.w3.org/1999/xlink">
]>
<svg  version="1.1" xmlns="&ns_svg;" xmlns:xlink="&ns_xlink;" width="500" height="500" viewBox="0 0 500 500"
	 overflow="visible" enable-background="new 0 0 500 500" xml:space="preserve">
<g id="compass" display="none">
	<circle display="inline" fill="#047391" cx="250" cy="250" r="250"/>
	<g display="inline">
		<polygon fill="#4F10BA" points="230.866,203.807 250,0 269.136,203.805 426.778,73.226 296.194,230.866 500,249.997 
			296.195,269.135 426.777,426.776 269.135,296.194 249.999,500 230.864,296.195 73.221,426.773 203.805,269.135 0,250.002 
			203.804,230.866 73.222,73.224 		"/>
		<path fill="#4F10BA" d="M231.363,203.854L250.498,0.047h-0.996l19.135,203.805l0.089,0.941l0.729-0.603l157.643-130.58
			l-0.704-0.704L295.81,230.547l-0.604,0.728l0.941,0.089l203.806,19.131v-0.996l-203.805,19.138l-0.941,0.089l0.604,0.729
			l130.582,157.642l0.704-0.704L269.454,295.81l-0.729-0.604l-0.089,0.941l-19.136,203.806h0.996l-19.135-203.805l-0.089-0.941
			l-0.728,0.604L72.902,426.389l0.704,0.704L204.19,269.454l0.603-0.729l-0.941-0.089L0.046,249.505v0.996l203.805-19.136
			l0.941-0.089l-0.603-0.728L73.607,72.905l-0.704,0.704l157.644,130.583l0.728,0.603L231.363,203.854z M72.836,73.543
			l130.583,157.642l0.338-0.817L-0.047,249.505v0.996l203.806,19.132l-0.338-0.817L72.836,426.454l0.704,0.704L231.183,296.58
			l-0.817-0.338l19.135,203.805h0.996l19.136-203.806l-0.817,0.338l157.643,130.582l0.704-0.704L296.58,268.815l-0.338,0.817
			l203.805-19.138v-0.996l-203.806-19.131l0.338,0.817L427.163,73.544l-0.704-0.704L268.816,203.42l0.817,0.338L250.498-0.047
			h-0.996L230.368,203.76l0.817-0.338L73.541,72.839L72.836,73.543z"/>
	</g>
	<polygon display="inline" fill="#8210D2" points="280.702,280.701 500,249.999 280.701,219.297 250,0 219.298,219.297 0,249.999 
		219.298,280.701 250,500 	"/>
	<g display="inline">
		<path fill="#FFFFFF" d="M237.02,141.071h0.096l2.688,4.8v14.496c0.768,6,3.84,4.128,3.84,6.192c0,1.488-1.968,1.392-2.496,1.392
			h-5.472c-0.528,0-2.496,0.096-2.496-1.392c0-2.064,3.072-0.192,3.84-6.192V141.071z M262.028,156.335v11.616h-7.152
			l-17.568-30.288c-0.768-1.344-1.008-2.064-2.592-2.592c-0.816-0.288-1.44-0.48-1.44-1.536c0-1.44,1.44-1.44,2.448-1.488h12.336
			L262.028,156.335z M259.244,140.735c0-6.864-3.936-5.04-3.936-7.248c0-1.344,1.584-1.44,2.063-1.44h6.528
			c0.48,0,2.064,0.096,2.064,1.44c0,2.208-3.937,0.384-3.937,7.248v11.664h-0.097l-2.688-4.848V140.735z"/>
	</g>
	<g display="inline">
		<path fill="#FFFFFF" d="M249.16,334.111c-1.824,0.625-3.408,1.969-3.408,3.936c0,2.354,1.296,3.793,7.008,6
			c8.496,3.266,10.416,7.777,10.416,12.193c0,7.439-6.191,12.287-13.296,12.432v-2.783c2.304-0.721,4.272-1.777,4.368-4.416
			c0.096-3.025-3.457-4.273-5.76-5.281c-6.048-2.543-11.665-5.279-11.665-12.816c0-7.295,5.28-11.807,12.336-12.047V334.111z
			 M236.824,357.199c0-1.008,0.192-2.352,1.536-2.352c0.96,0,1.632,0.768,1.776,1.584c0.672,3.84,3.36,8.592,7.584,9.457v2.783
			c-4.176-0.096-5.088-1.775-6.816-1.775c-1.536,0-1.392,1.584-2.592,1.584c-1.488,0-1.488-1.777-1.488-2.016V357.199z
			 M261.881,341.695c0,1.104-0.193,2.305-1.586,2.305c-1.15,0-1.584-0.912-1.727-1.873c-0.529-3.551-3.504-7.199-7.248-8.016v-2.783
			c3.023,0.047,6.24,1.871,6.768,1.871c1.248,0,1.152-1.729,2.4-1.729c1.488,0,1.393,1.633,1.393,2.018V341.695z"/>
	</g>
	<g display="inline">
		<path fill="#FFFFFF" d="M337.951,232h12.672v35.904h-12.672c-0.193,0-1.777-0.096-1.777-1.487c0-0.673,0.433-1.104,1.057-1.296
			c1.68-0.528,1.632-0.816,1.632-2.592v-25.153c0-1.776,0.048-2.064-1.632-2.592c-0.624-0.192-1.057-0.624-1.057-1.296
			C336.174,232.097,337.758,232,337.951,232z M352.783,232h10.703v9.744c0,0.24-0.048,1.152-1.488,1.152
			c-0.815,0-1.056-0.48-1.295-1.2c-1.248-3.888-3.696-6.24-7.92-6.912V232z M352.783,248.033c2.016-0.528,2.928-2.4,3.359-4.224
			c0.24-0.816,0.527-1.584,1.536-1.584c1.487,0,1.248,1.728,1.248,2.112v10.369c0,0.384,0.239,2.111-1.248,2.111
			c-1.009,0-1.296-0.768-1.536-1.584c-0.432-1.824-1.344-3.695-3.359-4.224V248.033z M352.783,265.121
			c3.887-0.48,6.863-3.12,8.159-6.961c0.337-0.719,0.624-1.487,1.488-1.487c1.536,0,1.392,1.44,1.392,1.632v9.6h-11.039V265.121z"/>
	</g>
	<g display="inline">
		<path fill="#FFFFFF" d="M145.224,267.954h-5.712l-8.544-31.248c-0.24-0.912-0.336-1.248-1.2-1.632
			c-0.72-0.336-1.151-0.576-1.151-1.44c0-1.584,1.968-1.584,3.071-1.584h11.137c1.056,0,2.735-0.144,2.735,1.392
			c0,1.632-2.16,1.2-2.16,2.976c0,0.432,0.097,0.72,0.24,1.2l4.752,17.617L145.224,267.954z M156.312,232.05l6.288,23.953
			l-3.023,11.951h-5.712l-6.24-23.136l3.264-12.768H156.312z M162.216,246.69l1.824-7.488c0.144-0.672,0.336-1.248,0.336-1.968
			c0-2.496-3.024-2.112-3.024-3.888c0-1.104,1.009-1.296,1.872-1.296h6.192c0.912,0,1.968,0.096,1.968,1.344
			c0,0.72-0.384,0.912-1.008,1.2c-2.4,1.056-3.024,2.736-3.648,5.136l-3.071,12.193l-0.097-0.049L162.216,246.69z"/>
	</g>
</g>
<g id="ambient_compass">
	<g>
		<circle cx="250" cy="250" r="250"/>
	</g>
	<g>
		<g>
			<polygon points="230.866,203.807 250,0 269.136,203.805 426.778,73.226 296.194,230.866 500,249.997 296.195,269.135 
				426.777,426.776 269.135,296.194 249.999,500 230.864,296.195 73.221,426.773 203.805,269.135 0,250.002 203.804,230.866 
				73.222,73.224 			"/>
			<path fill="#FFFFFF" d="M231.363,203.854L250.498,0.047h-0.996l19.135,203.805l0.089,0.941l0.729-0.603l157.643-130.58
				l-0.704-0.704L295.81,230.547l-0.604,0.728l0.941,0.089l203.806,19.131v-0.996l-203.805,19.138l-0.941,0.089l0.604,0.729
				l130.582,157.642l0.704-0.704L269.454,295.81l-0.729-0.604l-0.089,0.941l-19.136,203.806h0.996l-19.135-203.805l-0.089-0.941
				l-0.728,0.604L72.902,426.389l0.704,0.704L204.19,269.454l0.603-0.729l-0.941-0.089L0.046,249.505v0.996l203.805-19.136
				l0.941-0.089l-0.603-0.728L73.607,72.905l-0.704,0.704l157.644,130.583l0.728,0.603L231.363,203.854z M72.836,73.543
				l130.583,157.642l0.338-0.817L-0.047,249.505v0.996l203.806,19.132l-0.338-0.817L72.836,426.454l0.704,0.704L231.183,296.58
				l-0.817-0.338l19.135,203.805h0.996l19.136-203.806l-0.817,0.338l157.643,130.582l0.704-0.704L296.58,268.815l-0.338,0.817
				l203.805-19.138v-0.996l-203.806-19.131l0.338,0.817L427.163,73.544l-0.704-0.704L268.816,203.42l0.817,0.338L250.498-0.047
				h-0.996L230.368,203.76l0.817-0.338L73.541,72.839L72.836,73.543z"/>
		</g>
		<g>
			<path d="M231.363,203.854L250.498,0.047h-0.996l19.135,203.805l0.089,0.941l0.729-0.603l157.643-130.58l-0.704-0.704
				L295.81,230.547l-0.604,0.728l0.941,0.089l203.806,19.131v-0.996l-203.805,19.138l-0.941,0.089l0.604,0.729l130.582,157.642
				l0.704-0.704L269.454,295.81l-0.729-0.604l-0.089,0.941l-19.136,203.806h0.996l-19.135-203.805l-0.089-0.941l-0.728,0.604
				L72.902,426.389l0.704,0.704L204.19,269.454l0.603-0.729l-0.941-0.089L0.046,249.505v0.996l203.805-19.136l0.941-0.089
				l-0.603-0.728L73.607,72.905l-0.704,0.704l157.644,130.583l0.728,0.603L231.363,203.854z M72.836,73.543l130.583,157.642
				l0.338-0.817L-0.047,249.505v0.996l203.806,19.132l-0.338-0.817L72.836,426.454l0.704,0.704L231.183,296.58l-0.817-0.338
				l19.135,203.805h0.996l19.136-203.806l-0.817,0.338l157.643,130.582l0.704-0.704L296.58,268.815l-0.338,0.817l203.805-19.138
				v-0.996l-203.806-19.131l0.338,0.817L427.163,73.544l-0.704-0.704L268.816,203.42l0.817,0.338L250.498-0.047h-0.996
				L230.368,203.76l0.817-0.338L73.541,72.839L72.836,73.543z"/>
			<path fill="#FFFFFF" d="M231.861,203.9L250.996,0.094l0.051-0.547h-0.549h-0.996h-0.549l0.051,0.547l19.135,203.805l0.089,0.941
				l0.089,0.941l0.728-0.603l0.729-0.603c0.001,0,157.644-130.58,157.644-130.58l0.423-0.351l-0.389-0.388l-0.704-0.704
				l-0.389-0.388l-0.35,0.423L295.425,230.229l-0.604,0.728l-0.604,0.728l0.941,0.089l0.941,0.089
				c0,0,203.806,19.131,203.806,19.131l0.547,0.051v-0.549v-0.996v-0.549l-0.547,0.051l-203.805,19.138l-0.941,0.089l-0.941,0.089
				l0.604,0.729l0.604,0.729l130.582,157.642l0.35,0.423l0.389-0.389l0.704-0.704l0.389-0.389l-0.423-0.35L269.773,295.425
				l-0.729-0.604l-0.729-0.604l-0.089,0.941l-0.089,0.941l-19.136,203.806l-0.051,0.547h0.549h0.996h0.549l-0.051-0.547
				L231.86,296.102c0,0-0.089-0.941-0.089-0.941l-0.089-0.941l-0.728,0.604l-0.728,0.604c0,0-157.643,130.578-157.643,130.578
				l-0.423,0.35l0.388,0.389l0.704,0.704l0.388,0.389l0.351-0.423l130.584-157.639c0-0.001,0.603-0.729,0.603-0.729l0.603-0.728
				l-0.941-0.089l-0.941-0.089L0.093,249.007l-0.547-0.051v0.549v0.996v0.549l0.547-0.051l203.805-19.136
				c0,0,0.941-0.089,0.941-0.089l0.941-0.088l-0.603-0.728l-0.603-0.728L73.992,72.586l-0.351-0.423l-0.388,0.388l-0.704,0.704
				l-0.388,0.388l0.423,0.351l157.644,130.583l0.728,0.603l0.728,0.603l0.088-0.941L231.861,203.9z M231.594,204.41l-0.728-0.603
				L73.222,73.224l0.035,0.739l0.704-0.704l-0.739-0.035l130.583,157.642l0.603,0.728l0.338-0.816l-0.941,0.089
				c0,0-203.805,19.136-203.805,19.136l0.547,0.498v-0.996L0,250.003l203.806,19.132l0.941,0.089l-0.338-0.816l-0.603,0.729
				c0-0.001-130.584,157.638-130.584,157.638l0.739-0.034l-0.704-0.704l-0.035,0.738l157.643-130.578l0.729-0.604l-0.817-0.338
				l0.089,0.941c0,0,19.134,203.805,19.134,203.805l0.498-0.547h-0.996l0.498,0.547l19.136-203.806l0.089-0.941l-0.817,0.338
				l0.729,0.604l157.643,130.582l-0.034-0.738l-0.704,0.704l0.738,0.034L296.195,269.135l-0.604-0.729l-0.338,0.817l0.941-0.089
				L500,249.997l-0.547-0.498v0.996l0.547-0.498l-203.806-19.131c0,0-0.941-0.088-0.941-0.088l0.338,0.817l0.604-0.728
				c0,0,130.584-157.641,130.584-157.641l-0.738,0.035l0.704,0.704l0.034-0.739l-157.643,130.58c0.001,0-0.728,0.603-0.728,0.603
				l0.816,0.338l-0.089-0.941L250,0l-0.498,0.547h0.996L250,0l-19.135,203.807l-0.088,0.941L231.594,204.41z"/>
			<path fill="#FFFFFF" d="M72.451,73.862l130.583,157.642l0.53,0.639l0.317-0.767l0.338-0.817l0.318-0.767l-0.827,0.077
				L-0.094,249.007l-0.453,0.043v0.455v0.996v0.455l0.453,0.043l203.806,19.132l0.826,0.077l-0.317-0.767l-0.338-0.817l-0.317-0.767
				l-0.53,0.639L72.451,426.135l-0.29,0.351l0.322,0.322l0.704,0.704l0.322,0.322l0.351-0.291l157.643-130.578l0.64-0.529
				l-0.768-0.317l-0.817-0.338l-0.766-0.317l0.077,0.826l19.135,203.805l0.043,0.453h0.455h0.996h0.455l0.043-0.453l19.136-203.806
				l0.077-0.826l-0.767,0.317l-0.817,0.338l-0.768,0.317l0.64,0.529l157.643,130.582l0.351,0.291l0.322-0.322l0.704-0.704
				l0.322-0.322l-0.291-0.351L296.965,268.496l-0.529-0.64l-0.317,0.768l-0.338,0.817l-0.317,0.767l0.826-0.077l203.805-19.138
				l0.453-0.043v-0.455v-0.996v-0.455l-0.453-0.043L296.288,229.87l-0.826-0.077l0.317,0.766l0.338,0.817l0.317,0.768l0.529-0.64
				L427.548,73.863l0.291-0.351l-0.322-0.322l-0.704-0.704l-0.322-0.322l-0.351,0.29l-157.643,130.58l-0.639,0.53l0.767,0.317
				l0.817,0.338l0.767,0.317l-0.077-0.826L250.996-0.094l-0.043-0.453h-0.455h-0.996h-0.455l-0.043,0.453L229.87,203.713
				l-0.077,0.826l0.767-0.317l0.817-0.338l0.767-0.317l-0.639-0.53L73.859,72.454l-0.351-0.29l-0.322,0.322l-0.704,0.704
				l-0.322,0.322L72.451,73.862z M73.222,73.224l157.644,130.583l0.127-0.847l-0.817,0.338l0.689,0.509L250,0l-0.498,0.453h0.996
				L250,0l19.136,203.805l0.689-0.509l-0.817-0.338l0.128,0.847l157.643-130.58l-0.673-0.032l0.704,0.704l-0.031-0.672
				L296.194,230.866l0.847,0.128l-0.338-0.817l-0.509,0.689L500,249.997l-0.453-0.498v0.996l0.453-0.498l-203.805,19.138
				l0.509,0.689l0.338-0.817l-0.847,0.128l130.582,157.642l0.031-0.673l-0.704,0.704l0.673-0.031L269.135,296.194l-0.128,0.847
				l0.817-0.338l-0.689-0.509L249.999,500l0.498-0.453h-0.996l0.498,0.453l-19.135-203.805l-0.689,0.509l0.817,0.338l-0.128-0.847
				L73.221,426.773l0.672,0.031l-0.704-0.704l0.032,0.673l130.584-157.639l-0.847-0.128l0.338,0.817l0.509-0.689L0,250.003
				l0.453,0.498v-0.996L0,250.003l203.805-19.137l-0.509-0.689l-0.338,0.817l0.847-0.127L73.222,73.224l-0.032,0.672l0.704-0.704
				L73.222,73.224z"/>
		</g>
	</g>
	<g>
		<polygon points="280.702,280.701 500,249.999 280.701,219.297 250,0 219.298,219.297 0,249.999 219.298,280.701 250,500 		"/>
		<path fill="#FFFFFF" d="M280.841,281.691l219.298-30.702v-1.98L280.84,218.307l0.852,0.852L250.99-0.139h-1.98l-30.702,219.297
			l0.852-0.852L-0.139,249.009v1.98l219.298,30.702l-0.852-0.852l30.702,219.299h1.98l30.702-219.299L280.841,281.691z
			 M250.99,499.861l-30.702-219.299l-0.104-0.747l-0.747-0.104L0.139,249.009v1.98l219.298-30.702l0.747-0.104l0.104-0.747
			L250.99,0.139h-1.98l30.701,219.297l0.104,0.747l0.747,0.104l219.299,30.702v-1.98l-219.298,30.702l-0.747,0.104l-0.104,0.747
			L249.01,499.861H250.99z"/>
	</g>
	<g>
		<g>
			<path d="M237.02,141.071h0.096l2.688,4.8v14.496c0.768,6,3.84,4.128,3.84,6.192c0,1.488-1.968,1.392-2.496,1.392h-5.472
				c-0.528,0-2.496,0.096-2.496-1.392c0-2.064,3.072-0.192,3.84-6.192V141.071z M262.028,156.335v11.616h-7.152l-17.568-30.288
				c-0.768-1.344-1.008-2.064-2.592-2.592c-0.816-0.288-1.44-0.48-1.44-1.536c0-1.44,1.44-1.44,2.448-1.488h12.336L262.028,156.335z
				 M259.244,140.735c0-6.864-3.936-5.04-3.936-7.248c0-1.344,1.584-1.44,2.063-1.44h6.528c0.48,0,2.064,0.096,2.064,1.44
				c0,2.208-3.937,0.384-3.937,7.248v11.664h-0.097l-2.688-4.848V140.735z"/>
			<path fill="#FFFFFF" d="M237.02,141.571h0.096l-0.436-0.256l2.688,4.8l-0.064-0.244v14.496v0.032l0.004,0.032
				c0.512,4,2.063,4.774,3.089,5.286c0.592,0.295,0.747,0.391,0.747,0.842c0,0.221-0.06,0.383-0.187,0.51
				c-0.397,0.394-1.353,0.386-1.713,0.383l-0.096,0h-5.472l-0.096,0c-0.36,0.003-1.316,0.011-1.713-0.383
				c-0.127-0.126-0.187-0.289-0.187-0.51c0-0.451,0.155-0.547,0.747-0.842c1.026-0.512,2.577-1.286,3.089-5.286l0.004-0.032v-0.032
				v-19.296L237.02,141.571z M236.524,160.304c-0.444,3.471-1.657,4.076-2.543,4.518c-0.609,0.304-1.3,0.649-1.3,1.737
				c0,0.485,0.167,0.906,0.482,1.22c0.693,0.687,1.907,0.677,2.426,0.673l0.087,0h5.472l0.088,0
				c0.519,0.004,1.733,0.014,2.426-0.673c0.315-0.313,0.482-0.735,0.482-1.22c0-1.088-0.691-1.433-1.3-1.737
				c-0.886-0.442-2.099-1.047-2.543-4.518l0.004,0.063v-14.496v-0.13l-0.064-0.114l-2.688-4.8l-0.143-0.256h-0.293h-0.096h-0.5v0.5
				v19.296L236.524,160.304z"/>
			<path fill="#FFFFFF" d="M261.528,156.335v11.616l0.5-0.5h-7.152l0.433,0.249l-17.568-30.288c0.001,0.003-0.234-0.416-0.234-0.416
				c-0.626-1.125-1.04-1.869-2.633-2.4c0.008,0.002-0.055-0.02-0.055-0.02c-0.81-0.285-1.043-0.396-1.043-1.042
				c0-0.775,0.542-0.925,1.839-0.983l0.133-0.006c-0.024,0,12.312,0,12.312,0l-0.434-0.25l13.968,24.288L261.528,156.335z
				 M248.06,131.547h-12.336c-0.024,0-0.154,0.006-0.154,0.006c-0.977,0.044-2.794,0.125-2.794,1.982
				c0,1.382,0.909,1.703,1.711,1.985l0.062,0.022c1.233,0.411,1.5,0.89,2.084,1.94l0.241,0.428
				c0.001,0.003,17.569,30.291,17.569,30.291l0.145,0.249h0.288h7.152h0.5v-0.5v-11.616v-0.133l-0.066-0.116l-13.968-24.288
				l-0.145-0.25H248.06z"/>
			<path fill="#FFFFFF" d="M259.744,140.735c0-4.682-1.823-5.64-3.029-6.274c-0.674-0.354-0.906-0.5-0.906-0.974
				c0-0.818,0.979-0.94,1.563-0.94h6.528c0.584,0,1.564,0.122,1.564,0.94c0,0.473-0.232,0.62-0.906,0.974
				c-1.207,0.634-3.03,1.593-3.03,6.274v11.664l0.5-0.5h-0.097l0.438,0.258l-2.688-4.848l0.063,0.242V140.735z M258.807,147.794
				l2.688,4.848l0.143,0.257h0.295h0.097h0.5v-0.5v-11.664c0-4.078,1.384-4.805,2.495-5.39c0.676-0.355,1.441-0.757,1.441-1.858
				c0-1.197-0.982-1.94-2.564-1.94h-6.528c-1.581,0-2.563,0.743-2.563,1.94c0,1.101,0.766,1.503,1.44,1.858
				c1.111,0.584,2.495,1.312,2.495,5.39v6.816v0.129L258.807,147.794z"/>
		</g>
	</g>
	<g>
		<g>
			<path d="M249.16,334.111c-1.824,0.625-3.408,1.969-3.408,3.936c0,2.354,1.296,3.793,7.008,6
				c8.496,3.266,10.416,7.777,10.416,12.193c0,7.439-6.191,12.287-13.296,12.432v-2.783c2.304-0.721,4.272-1.777,4.368-4.416
				c0.096-3.025-3.457-4.273-5.76-5.281c-6.048-2.543-11.665-5.279-11.665-12.816c0-7.295,5.28-11.807,12.336-12.047V334.111z
				 M236.824,357.199c0-1.008,0.192-2.352,1.536-2.352c0.96,0,1.632,0.768,1.776,1.584c0.672,3.84,3.36,8.592,7.584,9.457v2.783
				c-4.176-0.096-5.088-1.775-6.816-1.775c-1.536,0-1.392,1.584-2.592,1.584c-1.488,0-1.488-1.777-1.488-2.016V357.199z
				 M261.881,341.695c0,1.104-0.193,2.305-1.586,2.305c-1.15,0-1.584-0.912-1.727-1.873c-0.529-3.551-3.504-7.199-7.248-8.016
				v-2.783c3.023,0.047,6.24,1.871,6.768,1.871c1.248,0,1.152-1.729,2.4-1.729c1.488,0,1.393,1.633,1.393,2.018V341.695z"/>
			<path fill="#FFFFFF" d="M248.998,333.639c-2.346,0.804-3.746,2.451-3.746,4.408c0,2.786,1.712,4.297,7.327,6.467
				c9.05,3.479,10.097,8.358,10.097,11.727c0,6.653-5.506,11.783-12.806,11.932l0.51,0.5v-2.783l-0.351,0.478
				c2.271-0.711,4.608-1.846,4.719-4.875c0.099-3.125-3.127-4.503-5.482-5.509l-0.577-0.249
				c-6.442-2.709-11.365-5.337-11.365-12.358c0-6.665,4.764-11.306,11.854-11.547l-0.517-0.5v2.783L248.998,333.639z
				 M249.143,330.828c-7.667,0.262-12.819,5.304-12.819,12.547c0,7.624,5.421,10.523,11.971,13.277
				c-0.007-0.003,0.579,0.249,0.579,0.249c2.206,0.943,4.952,2.116,4.875,4.556c-0.082,2.264-1.665,3.219-4.018,3.954l-0.351,0.11
				v0.367v2.783v0.511l0.51-0.011c7.859-0.16,13.786-5.72,13.786-12.932c0-5.821-3.412-9.845-10.736-12.66
				c-5.687-2.197-6.688-3.535-6.688-5.533c0-2.236,2.35-3.216,3.07-3.463l0.338-0.115v-0.357v-2.783v-0.518L249.143,330.828z"/>
			<path fill="#FFFFFF" d="M237.324,357.199c0-1.852,0.726-1.852,1.036-1.852c0.708,0,1.181,0.589,1.284,1.171
				c0.719,4.108,3.521,8.947,7.976,9.86l-0.4-0.49v2.783l0.511-0.5c-2.41-0.055-3.67-0.654-4.684-1.136
				c-0.722-0.344-1.345-0.64-2.144-0.64c-1.062,0-1.532,0.613-1.875,1.061c-0.297,0.388-0.427,0.523-0.717,0.523
				c-0.86,0-0.988-0.949-0.988-1.516V357.199z M236.324,366.465c0,1.552,0.762,2.516,1.988,2.516c0.81,0,1.199-0.507,1.511-0.915
				c0.298-0.389,0.513-0.669,1.081-0.669c0.574,0,1.052,0.228,1.715,0.542c1.041,0.495,2.466,1.173,5.09,1.233l0.511,0.012v-0.512
				v-2.783v-0.408l-0.4-0.082c-3.818-0.781-6.508-5.146-7.191-9.053c-0.175-0.993-1.011-1.998-2.269-1.998
				c-0.929,0-2.036,0.495-2.036,2.852V366.465z"/>
			<path fill="#FFFFFF" d="M261.381,341.695c0,1.503-0.416,1.805-1.086,1.805c-0.278,0-1.018,0-1.232-1.446
				c-0.594-3.987-3.877-7.611-7.636-8.431l0.394,0.488v-2.783l-0.508,0.5c2.026,0.031,4.183,0.914,5.471,1.441
				c0.746,0.306,1.059,0.43,1.305,0.43c0.892,0,1.311-0.628,1.616-1.087c0.304-0.456,0.46-0.642,0.784-0.642
				c0.262,0,0.454,0.065,0.588,0.201c0.315,0.318,0.308,0.991,0.306,1.244l-0.001,0.072V341.695z M262.381,333.488v-0.062
				c0.004-0.367,0.015-1.344-0.594-1.958c-0.326-0.331-0.764-0.498-1.299-0.498c-0.892,0-1.311,0.628-1.616,1.087
				c-0.304,0.456-0.46,0.642-0.784,0.642c-0.097-0.016-0.537-0.195-0.926-0.354c-1.354-0.555-3.619-1.482-5.834-1.517l-0.508-0.008
				v0.508v2.783v0.402l0.394,0.086c3.319,0.724,6.332,4.063,6.86,7.602c0.297,2,1.519,2.299,2.221,2.299
				c1.384,0,2.086-0.943,2.086-2.805V333.488z"/>
		</g>
	</g>
	<g>
		<g>
			<path d="M337.951,232h12.672v35.904h-12.672c-0.193,0-1.777-0.096-1.777-1.487c0-0.673,0.433-1.104,1.057-1.296
				c1.68-0.528,1.632-0.816,1.632-2.592v-25.153c0-1.776,0.048-2.064-1.632-2.592c-0.624-0.192-1.057-0.624-1.057-1.296
				C336.174,232.097,337.758,232,337.951,232z M352.783,232h10.703v9.744c0,0.24-0.048,1.152-1.488,1.152
				c-0.815,0-1.056-0.48-1.295-1.2c-1.248-3.888-3.696-6.24-7.92-6.912V232z M352.783,248.033c2.016-0.528,2.928-2.4,3.359-4.224
				c0.24-0.816,0.527-1.584,1.536-1.584c1.487,0,1.248,1.728,1.248,2.112v10.369c0,0.384,0.239,2.111-1.248,2.111
				c-1.009,0-1.296-0.768-1.536-1.584c-0.432-1.824-1.344-3.695-3.359-4.224V248.033z M352.783,265.121
				c3.887-0.48,6.863-3.12,8.159-6.961c0.337-0.719,0.624-1.487,1.488-1.487c1.536,0,1.392,1.44,1.392,1.632v9.6h-11.039V265.121z"
				/>
			<path fill="#FFFFFF" d="M337.951,232.5h12.672l-0.5-0.5v35.904l0.5-0.5h-12.672c-0.052,0-1.277-0.011-1.277-0.987
				c0-0.399,0.236-0.675,0.703-0.817c1.902-0.599,1.986-1.141,1.985-2.927v-0.144v-25.153v-0.143
				c0.001-1.787-0.083-2.329-1.982-2.926c-0.47-0.145-0.706-0.419-0.706-0.819C336.674,232.512,337.899,232.5,337.951,232.5z
				 M335.674,233.489c0,0.839,0.527,1.502,1.41,1.774c1.279,0.402,1.279,0.402,1.278,1.97v0.144v25.153v0.144
				c0.001,1.567,0.001,1.567-1.282,1.972c-0.879,0.27-1.406,0.933-1.406,1.772c0,1.458,1.362,1.987,2.277,1.987h12.672h0.5v-0.5V232
				v-0.5h-0.5h-12.672C337.036,231.5,335.674,232.03,335.674,233.489z"/>
			<path fill="#FFFFFF" d="M352.783,232.5h10.703l-0.5-0.5v9.744c0,0.178,0,0.652-0.988,0.652c-0.445,0-0.583-0.144-0.82-0.857
				c-1.349-4.2-4.069-6.573-8.316-7.248l0.422,0.494V232L352.783,232.5z M352.705,235.278c3.892,0.619,6.281,2.707,7.521,6.571
				c0.193,0.582,0.515,1.547,1.771,1.547c1.466,0,1.988-0.854,1.988-1.652V232v-0.5h-0.5h-10.703h-0.5v0.5v2.784v0.427
				L352.705,235.278z"/>
			<path fill="#FFFFFF" d="M352.91,248.517c1.862-0.488,3.113-2.033,3.719-4.593c0.248-0.838,0.451-1.199,1.05-1.199
				c0.349,0,0.474,0.131,0.515,0.174c0.283,0.296,0.252,0.977,0.239,1.268c-0.003,0.065-0.006,0.122-0.006,0.17v10.369
				c0,0.049,0.003,0.105,0.006,0.171c0.013,0.29,0.044,0.971-0.239,1.267c-0.041,0.043-0.166,0.174-0.515,0.174
				c-0.6,0-0.802-0.361-1.057-1.226c-0.599-2.532-1.85-4.077-3.712-4.566l0.373,0.484v-2.976L352.91,248.517z M352.656,251.492
				c1.477,0.388,2.486,1.685,3,3.855c0.221,0.753,0.578,1.969,2.022,1.969c0.516,0,0.932-0.162,1.238-0.482
				c0.578-0.605,0.535-1.55,0.515-2.004c-0.003-0.051-0.005-0.099-0.005-0.125v-10.369c0-0.026,0.002-0.074,0.005-0.125
				c0.021-0.454,0.063-1.398-0.516-2.003c-0.306-0.32-0.722-0.483-1.237-0.483c-1.443,0-1.802,1.216-2.016,1.943
				c-0.521,2.198-1.53,3.495-3.007,3.881l-0.373,0.098v0.386v2.976v0.386L352.656,251.492z"/>
			<path fill="#FFFFFF" d="M352.845,265.617c3.992-0.493,7.196-3.222,8.571-7.297l-0.021,0.052l0.073-0.159
				c0.342-0.739,0.523-1.04,0.962-1.04c0.308,0,0.533,0.072,0.672,0.215c0.241,0.249,0.226,0.704,0.221,0.854v0.008
				c-0.001,0.048-0.001,0.056-0.001,0.056v9.6l0.5-0.5h-11.039l0.5,0.5v-2.783L352.845,265.617z M352.783,268.404h11.039h0.5v-0.5
				v-9.6c0.009-0.285,0.034-1.059-0.502-1.612c-0.333-0.345-0.801-0.52-1.39-0.52c-1.122,0-1.554,0.937-1.869,1.621l-0.072,0.154
				l-0.011,0.024c-0.001,0.002-0.01,0.027-0.01,0.027c-1.249,3.703-4.146,6.18-7.747,6.625l-0.438,0.054v0.442v2.783v0.5H352.783z"
				/>
		</g>
	</g>
	<g>
		<g>
			<path d="M145.224,267.954h-5.712l-8.544-31.248c-0.24-0.912-0.336-1.248-1.2-1.632c-0.72-0.336-1.151-0.576-1.151-1.44
				c0-1.584,1.968-1.584,3.071-1.584h11.137c1.056,0,2.735-0.144,2.735,1.392c0,1.632-2.16,1.2-2.16,2.976
				c0,0.432,0.097,0.72,0.24,1.2l4.752,17.617L145.224,267.954z M156.312,232.05l6.288,23.953l-3.023,11.951h-5.712l-6.24-23.136
				l3.264-12.768H156.312z M162.216,246.69l1.824-7.488c0.144-0.672,0.336-1.248,0.336-1.968c0-2.496-3.024-2.112-3.024-3.888
				c0-1.104,1.009-1.296,1.872-1.296h6.192c0.912,0,1.968,0.096,1.968,1.344c0,0.72-0.384,0.912-1.008,1.2
				c-2.4,1.056-3.024,2.736-3.648,5.136l-3.071,12.193l-0.097-0.049L162.216,246.69z"/>
			<path fill="#FFFFFF" d="M145.224,267.454h-5.712l0.482,0.368l-8.544-31.248c-0.241-0.916-0.388-1.472-1.479-1.958
				c-0.702-0.328-0.854-0.449-0.854-0.983c0-0.903,0.984-1.084,2.571-1.084h11.137l0.257-0.002c0.612-0.006,1.45-0.014,1.789,0.321
				c0.127,0.126,0.189,0.313,0.189,0.573c0,0.491-0.259,0.666-0.799,0.983c-0.574,0.338-1.361,0.8-1.361,1.993
				c0,0.474,0.097,0.796,0.231,1.242l0.03,0.101c-0.004-0.013,4.748,17.604,4.748,17.604l-0.002-0.251l-3.168,12.72L145.224,267.454
				z M148.875,255.104l-4.752-17.617c-0.004-0.013-0.035-0.115-0.035-0.115c-0.122-0.404-0.188-0.627-0.188-0.954
				c0-0.593,0.297-0.796,0.868-1.131c0.545-0.321,1.292-0.76,1.292-1.845c0-0.533-0.163-0.964-0.485-1.283
				c-0.635-0.629-1.671-0.619-2.503-0.61l-0.247,0.001h-11.137c-1.069,0-3.571,0-3.571,2.084c0,1.221,0.765,1.578,1.44,1.893
				c0.662,0.294,0.702,0.449,0.928,1.307c0.001,0.004,8.545,31.252,8.545,31.252l0.101,0.368h0.382h5.712h0.391l0.095-0.379
				l3.168-12.72l0.031-0.126L148.875,255.104z"/>
			<path fill="#FFFFFF" d="M155.828,232.177l6.288,23.953l-0.001-0.25l-3.023,11.951l0.485-0.377h-5.712l0.483,0.37l-6.24-23.137
				l0.001,0.254l3.264-12.768l-0.484,0.376h5.424L155.828,232.177z M150.403,231.926l-3.264,12.768l-0.033,0.127l0.034,0.127
				l6.24,23.136l0.1,0.37h0.383h5.712h0.389l0.096-0.377l3.023-11.951l0.031-0.125l-0.033-0.125l-6.288-23.953l-0.098-0.373h-0.386
				h-5.424H150.5L150.403,231.926z"/>
			<path fill="#FFFFFF" d="M162.702,246.808l1.824-7.488c0.036-0.169,0.073-0.324,0.109-0.473c0.119-0.495,0.241-1.007,0.241-1.613
				c0-1.645-1.131-2.289-1.957-2.758c-0.701-0.399-1.067-0.631-1.067-1.13c0-0.258,0-0.796,1.372-0.796h6.192
				c1.248,0,1.468,0.272,1.468,0.844c0,0.372-0.074,0.449-0.717,0.746c-2.617,1.151-3.301,3.073-3.923,5.464
				c-0.001,0.004-3.072,12.197-3.072,12.197l0.71-0.324l-0.097-0.049l0.258,0.321l-1.344-5.185L162.702,246.808z M163.334,252.32
				l0.097,0.049l0.558,0.281l0.153-0.605l3.071-12.193c0.588-2.263,1.141-3.822,3.365-4.801c0.617-0.285,1.307-0.603,1.307-1.657
				c0-1.844-1.793-1.844-2.468-1.844h-6.192c-2.064,0-2.372,1.125-2.372,1.796c0,1.104,0.835,1.579,1.573,1.999
				c0.779,0.443,1.452,0.826,1.452,1.889c0,0.488-0.099,0.901-0.213,1.38c-0.037,0.155-0.076,0.316-0.111,0.483
				c0.003-0.014-1.821,7.475-1.821,7.475l-0.03,0.122l0.032,0.122l1.344,5.184l0.057,0.22L163.334,252.32z"/>
		</g>
	</g>
	<g>
	</g>
</g>
</svg>
