<?xml version="1.0" encoding="utf-8"?>
<!-- Generator: Adobe Illustrator 12.0.0, SVG Export Plug-In . SVG Version: 6.00 Build 51448)  -->
<!DOCTYPE svg PUBLIC "-//W3C//DTD SVG 1.1//EN" "http://www.w3.org/Graphics/SVG/1.1/DTD/svg11.dtd" [
	<!ENTITY ns_svg "http://www.w3.org/2000/svg">
	<!ENTITY ns_xlink "http://www.w3.org/1999/xlink">
]>
<svg  version="1.1" id="Layer_1" xmlns="&ns_svg;" xmlns:xlink="&ns_xlink;" width="500" height="500" viewBox="0 0 500 500"
	 overflow="visible" enable-background="new 0 0 500 500" xml:space="preserve">
<circle fill="#047391" cx="250" cy="250" r="250"/>
<g>
	<polygon fill="#4F10BA" points="230.866,203.807 250,0 269.136,203.805 426.778,73.226 296.194,230.866 500,249.997 
		296.195,269.135 426.777,426.776 269.135,296.194 249.999,500 230.864,296.195 73.221,426.773 203.805,269.135 0,250.002 
		203.804,230.866 73.222,73.224 	"/>
	<path fill="#4F10BA" d="M231.363,203.854L250.498,0.047h-0.996l19.135,203.805l0.089,0.941l0.729-0.603l157.643-130.58
		l-0.704-0.704L295.81,230.547l-0.604,0.728l0.941,0.089l203.806,19.131v-0.996l-203.805,19.138l-0.941,0.089l0.604,0.729
		l130.582,157.642l0.704-0.704L269.454,295.81l-0.729-0.604l-0.089,0.941l-19.136,203.806h0.996l-19.135-203.805l-0.089-0.941
		l-0.728,0.604L72.902,426.389l0.704,0.704L204.19,269.454l0.603-0.729l-0.941-0.089L0.046,249.505v0.996l203.805-19.136
		l0.941-0.089l-0.603-0.728L73.607,72.905l-0.704,0.704l157.644,130.583l0.728,0.603L231.363,203.854z M72.836,73.543
		l130.583,157.642l0.338-0.817L-0.047,249.505v0.996l203.806,19.132l-0.338-0.817L72.836,426.454l0.704,0.704L231.183,296.58
		l-0.817-0.338l19.135,203.805h0.996l19.136-203.806l-0.817,0.338l157.643,130.582l0.704-0.704L296.58,268.815l-0.338,0.817
		l203.805-19.138v-0.996l-203.806-19.131l0.338,0.817L427.163,73.544l-0.704-0.704L268.816,203.42l0.817,0.338L250.498-0.047h-0.996
		L230.368,203.76l0.817-0.338L73.541,72.839L72.836,73.543z"/>
</g>
<polygon fill="#8210D2" points="280.702,280.701 500,249.999 280.701,219.297 250,0 219.298,219.297 0,249.999 219.298,280.701 
	250,500 "/>
<g>
	<path fill="#FFFFFF" d="M237.02,141.071h0.096l2.688,4.8v14.496c0.768,6,3.84,4.128,3.84,6.192c0,1.488-1.968,1.392-2.496,1.392
		h-5.472c-0.528,0-2.496,0.096-2.496-1.392c0-2.064,3.072-0.192,3.84-6.192V141.071z M262.028,156.335v11.616h-7.152l-17.568-30.288
		c-0.768-1.344-1.008-2.064-2.592-2.592c-0.816-0.288-1.44-0.48-1.44-1.536c0-1.44,1.44-1.44,2.448-1.488h12.336L262.028,156.335z
		 M259.244,140.735c0-6.864-3.936-5.04-3.936-7.248c0-1.344,1.584-1.44,2.063-1.44h6.528c0.48,0,2.064,0.096,2.064,1.44
		c0,2.208-3.937,0.384-3.937,7.248v11.664h-0.097l-2.688-4.848V140.735z"/>
</g>
<g>
	<path fill="#FFFFFF" d="M250.839,365.889c1.824-0.625,3.408-1.969,3.408-3.936c0-2.354-1.296-3.793-7.007-6
		c-8.496-3.266-10.416-7.777-10.416-12.193c0-7.439,6.191-12.287,13.296-12.432v2.783c-2.304,0.721-4.272,1.777-4.368,4.416
		c-0.096,3.025,3.457,4.273,5.759,5.281c6.049,2.543,11.665,5.279,11.665,12.816c0,7.295-5.28,11.807-12.336,12.047V365.889z
		 M263.176,342.801c0,1.008-0.192,2.352-1.536,2.352c-0.96,0-1.632-0.768-1.776-1.584c-0.672-3.84-3.359-8.592-7.584-9.457v-2.783
		c4.176,0.096,5.088,1.775,6.816,1.775c1.535,0,1.392-1.584,2.592-1.584c1.488,0,1.488,1.777,1.488,2.016V342.801z M238.119,358.305
		c0-1.104,0.193-2.305,1.586-2.305c1.15,0,1.584,0.912,1.727,1.873c0.529,3.551,3.504,7.199,7.248,8.016v2.783
		c-3.023-0.047-6.24-1.871-6.768-1.871c-1.248,0-1.152,1.729-2.4,1.729c-1.488,0-1.393-1.633-1.393-2.018V358.305z"/>
</g>
<g>
	<path fill="#FFFFFF" d="M367.952,237.904v12.672h-35.904v-12.672c0-0.193,0.096-1.777,1.487-1.777c0.673,0,1.104,0.433,1.296,1.057
		c0.528,1.68,0.816,1.632,2.592,1.632h25.153c1.775,0,2.063,0.048,2.592-1.632c0.191-0.624,0.624-1.057,1.296-1.057
		C367.855,236.126,367.952,237.71,367.952,237.904z M367.952,252.735v10.703h-9.744c-0.24,0-1.152-0.048-1.152-1.488
		c0-0.815,0.48-1.056,1.2-1.295c3.888-1.248,6.24-3.696,6.912-7.92H367.952z M351.92,252.735c0.527,2.016,2.399,2.928,4.224,3.359
		c0.816,0.24,1.584,0.527,1.584,1.536c0,1.487-1.728,1.248-2.111,1.248h-10.369c-0.384,0-2.111,0.239-2.111-1.248
		c0-1.009,0.768-1.296,1.584-1.536c1.824-0.432,3.695-1.344,4.224-3.359H351.92z M334.831,252.735
		c0.48,3.887,3.12,6.863,6.961,8.159c0.719,0.337,1.487,0.624,1.487,1.488c0,1.536-1.44,1.392-1.632,1.392h-9.6v-11.039H334.831z"/>
</g>
<g>
	<path fill="#FFFFFF" d="M167.954,254.776v5.712l-31.248,8.544c-0.912,0.24-1.248,0.336-1.632,1.2
		c-0.336,0.72-0.576,1.151-1.44,1.151c-1.584,0-1.584-1.968-1.584-3.071v-11.137c0-1.056-0.144-2.735,1.392-2.735
		c1.632,0,1.2,2.16,2.976,2.16c0.432,0,0.72-0.097,1.2-0.24l17.617-4.752L167.954,254.776z M132.05,243.688l23.953-6.288
		l11.951,3.023v5.712l-23.136,6.24l-12.768-3.264V243.688z M146.69,237.784l-7.488-1.824c-0.672-0.144-1.248-0.336-1.968-0.336
		c-2.496,0-2.112,3.024-3.888,3.024c-1.104,0-1.296-1.009-1.296-1.872v-6.192c0-0.912,0.096-1.968,1.344-1.968
		c0.72,0,0.912,0.384,1.2,1.008c1.056,2.4,2.736,3.024,5.136,3.648l12.193,3.071l-0.049,0.097L146.69,237.784z"/>
</g>
</svg>
